<mxfile>
    <diagram id="FjU2hUIAvV_zMBak0NiP" name="Page-1">
        <mxGraphModel dx="1054" dy="639" grid="1" gridSize="10" guides="1" tooltips="1" connect="1" arrows="1" fold="1" page="1" pageScale="1" pageWidth="850" pageHeight="1100" math="0" shadow="0">
            <root>
                <mxCell id="0"/>
                <mxCell id="1" parent="0"/>
                <mxCell id="2" value="Webserver&lt;br&gt;(IIS)" style="rounded=0;whiteSpace=wrap;html=1;" vertex="1" parent="1">
                    <mxGeometry x="120" y="80" width="310" height="220" as="geometry"/>
                </mxCell>
                <mxCell id="3" value="Vroegah" style="text;html=1;strokeColor=none;fillColor=none;align=center;verticalAlign=middle;whiteSpace=wrap;rounded=0;" vertex="1" parent="1">
                    <mxGeometry x="220" y="310" width="80" height="20" as="geometry"/>
                </mxCell>
                <mxCell id="4" value="App" style="rounded=0;whiteSpace=wrap;html=1;fillColor=#008a00;strokeColor=#005700;fontColor=#ffffff;" vertex="1" parent="1">
                    <mxGeometry x="130" y="90" width="120" height="60" as="geometry"/>
                </mxCell>
                <mxCell id="5" value="App" style="rounded=0;whiteSpace=wrap;html=1;fillColor=#008a00;strokeColor=#005700;fontColor=#ffffff;" vertex="1" parent="1">
                    <mxGeometry x="260" y="90" width="60" height="60" as="geometry"/>
                </mxCell>
                <mxCell id="6" value="App" style="rounded=0;whiteSpace=wrap;html=1;fillColor=#008a00;strokeColor=#005700;fontColor=#ffffff;" vertex="1" parent="1">
                    <mxGeometry x="330" y="90" width="90" height="60" as="geometry"/>
                </mxCell>
                <mxCell id="7" value="App" style="rounded=0;whiteSpace=wrap;html=1;" vertex="1" parent="1">
                    <mxGeometry x="420" y="380" width="310" height="220" as="geometry"/>
                </mxCell>
                <mxCell id="8" value="Nu" style="text;html=1;strokeColor=none;fillColor=none;align=center;verticalAlign=middle;whiteSpace=wrap;rounded=0;" vertex="1" parent="1">
                    <mxGeometry x="520" y="610" width="80" height="20" as="geometry"/>
                </mxCell>
                <mxCell id="9" value="Webserver&lt;br&gt;(Kestrel)" style="rounded=0;whiteSpace=wrap;html=1;fillColor=#008a00;strokeColor=#005700;fontColor=#ffffff;" vertex="1" parent="1">
                    <mxGeometry x="430" y="390" width="120" height="60" as="geometry"/>
                </mxCell>
                <mxCell id="12" value="Functioneel&lt;br&gt;iets" style="rounded=0;whiteSpace=wrap;html=1;fillColor=#008a00;strokeColor=#005700;fontColor=#ffffff;" vertex="1" parent="1">
                    <mxGeometry x="560" y="390" width="110" height="60" as="geometry"/>
                </mxCell>
                <mxCell id="13" value="Docker" style="text;html=1;strokeColor=none;fillColor=none;align=center;verticalAlign=middle;whiteSpace=wrap;rounded=0;" vertex="1" parent="1">
                    <mxGeometry x="110" y="390" width="90" height="20" as="geometry"/>
                </mxCell>
            </root>
        </mxGraphModel>
    </diagram>
    <diagram id="SBxd4ekjKmsv7C8OwKOR" name=".NET">
        <mxGraphModel dx="1054" dy="639" grid="1" gridSize="10" guides="1" tooltips="1" connect="1" arrows="1" fold="1" page="1" pageScale="1" pageWidth="850" pageHeight="1100" math="0" shadow="0">
            <root>
                <mxCell id="j7A0h65CUFyfts1t1pCv-0"/>
                <mxCell id="j7A0h65CUFyfts1t1pCv-1" parent="j7A0h65CUFyfts1t1pCv-0"/>
                <mxCell id="j7A0h65CUFyfts1t1pCv-2" value="C#" style="text;html=1;strokeColor=none;fillColor=none;align=center;verticalAlign=middle;whiteSpace=wrap;rounded=0;" vertex="1" parent="j7A0h65CUFyfts1t1pCv-1">
                    <mxGeometry x="50" y="40" width="40" height="20" as="geometry"/>
                </mxCell>
                <mxCell id="j7A0h65CUFyfts1t1pCv-3" value="F#" style="text;html=1;strokeColor=none;fillColor=none;align=center;verticalAlign=middle;whiteSpace=wrap;rounded=0;" vertex="1" parent="j7A0h65CUFyfts1t1pCv-1">
                    <mxGeometry x="100" y="40" width="40" height="20" as="geometry"/>
                </mxCell>
                <mxCell id="j7A0h65CUFyfts1t1pCv-4" value="VB" style="text;html=1;strokeColor=none;fillColor=none;align=center;verticalAlign=middle;whiteSpace=wrap;rounded=0;" vertex="1" parent="j7A0h65CUFyfts1t1pCv-1">
                    <mxGeometry x="150" y="40" width="40" height="20" as="geometry"/>
                </mxCell>
                <mxCell id="j7A0h65CUFyfts1t1pCv-5" value="MSIL" style="rounded=0;whiteSpace=wrap;html=1;" vertex="1" parent="j7A0h65CUFyfts1t1pCv-1">
                    <mxGeometry x="50" y="150" width="120" height="60" as="geometry"/>
                </mxCell>
                <mxCell id="j7A0h65CUFyfts1t1pCv-6" value="" style="endArrow=classic;html=1;" edge="1" parent="j7A0h65CUFyfts1t1pCv-1" source="j7A0h65CUFyfts1t1pCv-2" target="j7A0h65CUFyfts1t1pCv-5">
                    <mxGeometry width="50" height="50" relative="1" as="geometry">
                        <mxPoint x="400" y="350" as="sourcePoint"/>
                        <mxPoint x="450" y="300" as="targetPoint"/>
                    </mxGeometry>
                </mxCell>
                <mxCell id="j7A0h65CUFyfts1t1pCv-7" value="compiler" style="endArrow=classic;html=1;exitX=0.5;exitY=1;exitDx=0;exitDy=0;" edge="1" parent="j7A0h65CUFyfts1t1pCv-1" source="j7A0h65CUFyfts1t1pCv-3" target="j7A0h65CUFyfts1t1pCv-5">
                    <mxGeometry width="50" height="50" relative="1" as="geometry">
                        <mxPoint x="400" y="350" as="sourcePoint"/>
                        <mxPoint x="450" y="300" as="targetPoint"/>
                    </mxGeometry>
                </mxCell>
                <mxCell id="j7A0h65CUFyfts1t1pCv-8" value="" style="endArrow=classic;html=1;exitX=0.75;exitY=1;exitDx=0;exitDy=0;" edge="1" parent="j7A0h65CUFyfts1t1pCv-1" source="j7A0h65CUFyfts1t1pCv-4" target="j7A0h65CUFyfts1t1pCv-5">
                    <mxGeometry width="50" height="50" relative="1" as="geometry">
                        <mxPoint x="400" y="350" as="sourcePoint"/>
                        <mxPoint x="450" y="300" as="targetPoint"/>
                    </mxGeometry>
                </mxCell>
                <mxCell id="j7A0h65CUFyfts1t1pCv-9" value="CLR" style="rounded=0;whiteSpace=wrap;html=1;" vertex="1" parent="j7A0h65CUFyfts1t1pCv-1">
                    <mxGeometry x="560" y="380" width="120" height="60" as="geometry"/>
                </mxCell>
                <mxCell id="j7A0h65CUFyfts1t1pCv-10" value="Windows" style="rounded=0;whiteSpace=wrap;html=1;" vertex="1" parent="j7A0h65CUFyfts1t1pCv-1">
                    <mxGeometry x="20" y="380" width="60" height="60" as="geometry"/>
                </mxCell>
                <mxCell id="j7A0h65CUFyfts1t1pCv-11" value="MacOS" style="rounded=0;whiteSpace=wrap;html=1;" vertex="1" parent="j7A0h65CUFyfts1t1pCv-1">
                    <mxGeometry x="180" y="380" width="120" height="60" as="geometry"/>
                </mxCell>
                <mxCell id="j7A0h65CUFyfts1t1pCv-12" value="Linux" style="rounded=0;whiteSpace=wrap;html=1;" vertex="1" parent="j7A0h65CUFyfts1t1pCv-1">
                    <mxGeometry x="340" y="380" width="120" height="60" as="geometry"/>
                </mxCell>
                <mxCell id="j7A0h65CUFyfts1t1pCv-13" value="" style="endArrow=classic;html=1;" edge="1" parent="j7A0h65CUFyfts1t1pCv-1" source="j7A0h65CUFyfts1t1pCv-5" target="j7A0h65CUFyfts1t1pCv-10">
                    <mxGeometry width="50" height="50" relative="1" as="geometry">
                        <mxPoint x="400" y="350" as="sourcePoint"/>
                        <mxPoint x="450" y="300" as="targetPoint"/>
                    </mxGeometry>
                </mxCell>
            </root>
        </mxGraphModel>
    </diagram>
    <diagram id="4euCDa9bO27r_6SG3lzX" name="MVC">
        <mxGraphModel dx="1054" dy="639" grid="1" gridSize="10" guides="1" tooltips="1" connect="1" arrows="1" fold="1" page="1" pageScale="1" pageWidth="850" pageHeight="1100" math="0" shadow="0">
            <root>
                <mxCell id="Wt3chOTGkwCPBJL3cy-j-0"/>
                <mxCell id="Wt3chOTGkwCPBJL3cy-j-1" parent="Wt3chOTGkwCPBJL3cy-j-0"/>
                <mxCell id="Wt3chOTGkwCPBJL3cy-j-2" value="Model" style="rounded=0;whiteSpace=wrap;html=1;fillColor=#d80073;strokeColor=#A50040;fontColor=#ffffff;" vertex="1" parent="Wt3chOTGkwCPBJL3cy-j-1">
                    <mxGeometry x="70" y="100" width="120" height="60" as="geometry"/>
                </mxCell>
                <mxCell id="Wt3chOTGkwCPBJL3cy-j-3" value="View" style="rounded=0;whiteSpace=wrap;html=1;fillColor=#1ba1e2;strokeColor=#006EAF;fontColor=#ffffff;" vertex="1" parent="Wt3chOTGkwCPBJL3cy-j-1">
                    <mxGeometry x="70" y="300" width="120" height="60" as="geometry"/>
                </mxCell>
                <mxCell id="Wt3chOTGkwCPBJL3cy-j-4" value="Controller" style="rounded=0;whiteSpace=wrap;html=1;fillColor=#008a00;strokeColor=#005700;fontColor=#ffffff;" vertex="1" parent="Wt3chOTGkwCPBJL3cy-j-1">
                    <mxGeometry x="310" y="200" width="120" height="60" as="geometry"/>
                </mxCell>
                <mxCell id="Wt3chOTGkwCPBJL3cy-j-5" value="Visuele deel&lt;br&gt;UI&lt;br&gt;HTML" style="text;html=1;strokeColor=none;fillColor=none;align=center;verticalAlign=middle;whiteSpace=wrap;rounded=0;" vertex="1" parent="Wt3chOTGkwCPBJL3cy-j-1">
                    <mxGeometry x="80" y="370" width="120" height="80" as="geometry"/>
                </mxCell>
                <mxCell id="Wt3chOTGkwCPBJL3cy-j-6" value="Representatie van data" style="text;html=1;strokeColor=none;fillColor=none;align=center;verticalAlign=middle;whiteSpace=wrap;rounded=0;" vertex="1" parent="Wt3chOTGkwCPBJL3cy-j-1">
                    <mxGeometry y="170" width="120" height="50" as="geometry"/>
                </mxCell>
                <mxCell id="Wt3chOTGkwCPBJL3cy-j-7" value="Businesslogica&lt;br&gt;Flowbeheerder" style="text;html=1;strokeColor=none;fillColor=none;align=center;verticalAlign=middle;whiteSpace=wrap;rounded=0;" vertex="1" parent="Wt3chOTGkwCPBJL3cy-j-1">
                    <mxGeometry x="310" y="270" width="110" height="50" as="geometry"/>
                </mxCell>
                <mxCell id="Wt3chOTGkwCPBJL3cy-j-8" value="" style="shape=flexArrow;endArrow=classic;html=1;" edge="1" parent="Wt3chOTGkwCPBJL3cy-j-1" source="Wt3chOTGkwCPBJL3cy-j-4" target="Wt3chOTGkwCPBJL3cy-j-2">
                    <mxGeometry width="50" height="50" relative="1" as="geometry">
                        <mxPoint x="360" y="240" as="sourcePoint"/>
                        <mxPoint x="450" y="280" as="targetPoint"/>
                    </mxGeometry>
                </mxCell>
                <mxCell id="Wt3chOTGkwCPBJL3cy-j-9" value="" style="shape=flexArrow;endArrow=classic;html=1;exitX=0.068;exitY=0.992;exitDx=0;exitDy=0;exitPerimeter=0;" edge="1" parent="Wt3chOTGkwCPBJL3cy-j-1" source="Wt3chOTGkwCPBJL3cy-j-4" target="Wt3chOTGkwCPBJL3cy-j-3">
                    <mxGeometry width="50" height="50" relative="1" as="geometry">
                        <mxPoint x="320" y="250" as="sourcePoint"/>
                        <mxPoint x="450" y="280" as="targetPoint"/>
                    </mxGeometry>
                </mxCell>
                <mxCell id="Wt3chOTGkwCPBJL3cy-j-10" value="" style="shape=flexArrow;endArrow=classic;html=1;entryX=0.5;entryY=1;entryDx=0;entryDy=0;" edge="1" parent="Wt3chOTGkwCPBJL3cy-j-1" source="Wt3chOTGkwCPBJL3cy-j-3" target="Wt3chOTGkwCPBJL3cy-j-2">
                    <mxGeometry width="50" height="50" relative="1" as="geometry">
                        <mxPoint x="400" y="330" as="sourcePoint"/>
                        <mxPoint x="450" y="280" as="targetPoint"/>
                    </mxGeometry>
                </mxCell>
            </root>
        </mxGraphModel>
    </diagram>
</mxfile>